<svg width="17" height="15" viewBox="0 0 17 15" fill="none" xmlns="http://www.w3.org/2000/svg">
<path d="M8.0365 0.681559C8.11419 0.457383 8.43123 0.457382 8.50893 0.681558L10.1738 5.48537C10.2087 5.58601 10.3035 5.6535 10.4101 5.6535H15.7617C16.0078 5.6535 16.1058 5.9716 15.9025 6.11012L11.6012 9.03984C11.5079 9.10341 11.4688 9.22164 11.5057 9.32833L13.1551 14.0873C13.234 14.3148 12.9772 14.5114 12.7782 14.3758L8.41345 11.4029C8.32854 11.345 8.21689 11.345 8.13198 11.4029L3.76727 14.3758C3.56826 14.5114 3.31147 14.3148 3.39032 14.0873L5.03969 9.32833C5.07667 9.22164 5.03754 9.10341 4.94421 9.03984L0.64297 6.11012C0.439596 5.9716 0.537639 5.6535 0.783708 5.6535H6.13538C6.24189 5.6535 6.33671 5.58601 6.37159 5.48537L8.0365 0.681559Z" fill="#FBB040"/>
</svg>
